<?xml version="1.0" encoding="iso-8859-1"?>
<!-- Generator: Adobe Illustrator 19.0.0, SVG Export Plug-In . SVG Version: 6.00 Build 0)  -->
<svg version="1.1" id="Capa_1" xmlns="http://www.w3.org/2000/svg" xmlns:xlink="http://www.w3.org/1999/xlink" x="0px" y="0px"
	 viewBox="0 0 472 472" style="enable-background:new 0 0 472 472;" xml:space="preserve">
<g>
	<g>
		<g>
			<path d="M403.992,336h-64v104h64V336z M387.992,424h-32v-72h32V424z"/>
			<path d="M259.992,264h-192c-13.255,0-24,10.745-24,24v152h240V288C283.992,274.745,273.247,264,259.992,264z M267.992,424h-208
				V320h208V424z M267.992,304h-208v-16c0-4.418,3.582-8,8-8h192c4.418,0,8,3.582,8,8V304z"/>
			<path d="M467.44,109.272c-0.08-0.224-0.16-0.44-0.256-0.656s-0.112-0.344-0.2-0.496l-38.992-70.192V8c0-4.418-3.582-8-8-8h-376
				c-4.418,0-8,3.582-8,8v30.304L4.68,108.752v0.072c0,0.088-0.048,0.192-0.088,0.28c-0.311,0.816-0.484,1.679-0.512,2.552
				c0,0.12-0.072,0.224-0.072,0.344v360h463.984V112c0-0.048,0-0.096,0-0.144C467.956,110.97,467.769,110.096,467.44,109.272z
				 M446.392,104H353.76l-18.664-56h80.192L446.392,104z M339.992,120v80c0,17.673-14.327,32-32,32h-32c-17.673,0-32-14.327-32-32
				v-8v-72H339.992z M243.992,104V48h74.232l18.664,56H243.992z M51.992,16h360v16h-360V16z M135.096,104l18.664-56h74.232v56
				H135.096z M227.992,120v72c-0.026,22.08-17.92,39.974-40,40h-16c-22.08-0.026-39.974-17.92-40-40v-72H227.992z M49.192,48h87.696
				l-18.664,56h-93.92L49.192,48z M19.992,120h96v68.8c-0.026,23.848-19.352,43.174-43.2,43.2h-12.8
				c-22.08-0.026-39.974-17.92-40-40V120z M419.992,456h-96V320h96V456z M419.992,304h-96v-9.6c0-7.953,6.447-14.4,14.4-14.4h67.2
				c7.953,0,14.4,6.447,14.4,14.4V304z M451.992,456h-16V294.4c0-16.789-13.611-30.4-30.4-30.4h-67.2
				c-16.789,0-30.4,13.611-30.4,30.4V456h-288V231.112c10.506,10.8,24.933,16.892,40,16.888h12.8
				c20.647-0.022,39.787-10.811,50.496-28.464c9.921,17.569,28.527,28.443,48.704,28.464h16c18.5-0.014,35.8-9.164,46.224-24.448
				c8.496,15.088,24.46,24.43,41.776,24.448h32c17.316-0.018,33.28-9.36,41.776-24.448c10.424,15.284,27.724,24.434,46.224,24.448
				h16c15.067,0.004,29.494-6.088,40-16.888V456z M451.992,192c-0.026,22.08-17.92,39.974-40,40h-16
				c-22.08-0.026-39.974-17.92-40-40v-72h96V192z"/>
		</g>
	</g>
</g>
<g>
</g>
<g>
</g>
<g>
</g>
<g>
</g>
<g>
</g>
<g>
</g>
<g>
</g>
<g>
</g>
<g>
</g>
<g>
</g>
<g>
</g>
<g>
</g>
<g>
</g>
<g>
</g>
<g>
</g>
</svg>
